PathFileType	4	(X/Y/Z)	Patient5_TMGait_0pt45_1_left_08.trc.trc
DataRate	CameraRate	NumFrames	NumMarkers	Units	OrigDataRate	OrigDataStartFrame	OrigNumFrames
57.851239669421	57.851239669421	4	32	mm	57.851239669421	124	       141
Frame#	Time	R.ASIS			L.ASIS			Chest			R.Shoulder			Neck			L.Shoulder			L.Elbow			L.Wrist			R.Elbow			R.Wrist			L.Thigh.Superior			L.Thigh.Lateral			L.Thigh.Inferior			L.Patella			L.Shank.Superior			L.Shank.Lateral			L.Shank.Inferior			L.Heel			L.Midfoot.Lateral			L.Midfoot.Superior			L.Toe			R.Thigh.Superior			R.Thigh.Lateral			R.Thigh.Inferior			R.Patella			R.Shank.Superior			R.Shank.Lateral			R.Shank.Inferior			R.Heel			R.Midfoot.Lateral			R.Midfoot.Superior			R.Toe			
		X1	Y1	Z1	X2	Y2	Z2	X3	Y3	Z3	X4	Y4	Z4	X5	Y5	Z5	X6	Y6	Z6	X7	Y7	Z7	X8	Y8	Z8	X9	Y9	Z9	X10	Y10	Z10	X11	Y11	Z11	X12	Y12	Z12	X13	Y13	Z13	X14	Y14	Z14	X15	Y15	Z15	X16	Y16	Z16	X17	Y17	Z17	X18	Y18	Z18	X19	Y19	Z19	X20	Y20	Z20	X21	Y21	Z21	X22	Y22	Z22	X23	Y23	Z23	X24	Y24	Z24	X25	Y25	Z25	X26	Y26	Z26	X27	Y27	Z27	X28	Y28	Z28	X29	Y29	Z29	X30	Y30	Z30	X31	Y31	Z31	X32	Y32	Z32	

124	13.876142857143	1038.386210637025	953.823851086932	600.421954746662	1035.785753483922	946.868180152562	360.055961346025	1130.723586232555	1412.840458656183	483.965043107615	1050.604738029847	1475.627607970451	658.021889433795	1008.661451193963	1541.030369541454	480.195424374050	1052.020796559275	1489.596216987626	294.363981701252	923.202820892052	1189.214370751690	168.425382722381	1003.883899111987	911.349087666865	155.542804575376	1001.549561965632	1157.872578202679	814.558284030585	1215.226439959137	980.691838646479	729.970896842070	1095.062496559881	753.042130576331	338.909590496702	1049.195777672843	665.397829785837	297.862018270333	1139.829366236029	636.682665374416	363.085632859162	1185.470020364358	529.620378821684	367.189715707684	1168.653948193365	420.155652283577	390.969064351631	1116.764879617783	335.064367063540	317.849291559768	1174.299109118834	292.989379249952	400.224502000585	1107.114699240447	45.704161721116	402.473217330483	1196.652780042915	31.100067661373	340.949485842544	1284.284827046251	106.107263545504	379.968552071640	1394.071197725453	80.825400593767	382.634643960827	1007.226531728294	717.930300379370	603.588222541689	901.672694062392	656.301238997119	648.672273267455	968.659329386897	591.936123671607	573.305135753753	947.677739357053	496.992671913280	594.635522091499	892.250280669596	412.883246484020	550.611918813155	810.576226755934	351.652401444603	626.086222668783	858.751348885841	277.680300554285	542.612286224678	711.727988441924	55.422761366889	493.952546175685	788.059959903774	25.345462431180	568.645763209322	894.738549610148	87.600342618390	548.421230311854	998.049745966038	43.849036407639	550.222737108158	
125	13.893428571429	1040.308879651933	953.624226303066	600.045157669325	1042.197007440354	946.352252702487	359.269631151561	1132.510463525888	1413.254195376470	482.594018482219	1048.754434964950	1476.095053207000	654.979124732278	1010.388066264939	1540.882064413242	476.350518996174	1056.688240979646	1488.869068200593	291.279018163873	931.155068142640	1187.770885923183	163.961155842425	1011.626567667547	909.712069755131	153.165493804106	997.634165277131	1158.055083748551	810.874865843002	1212.076580943314	980.005960059268	730.160065408304	1101.007775826436	750.892867948768	341.519313783793	1054.537238701200	663.441238484961	300.353704003649	1142.886489220789	633.686940975995	368.109205683132	1185.859735448985	526.785978105566	374.711788980291	1168.205980970287	417.195166196838	396.784834001615	1119.483504030021	332.711799987708	321.229906348769	1173.287551889818	290.077042864117	405.122767140862	1104.472829898191	46.049029189839	403.642812744877	1195.207462194102	29.903261266331	344.185449607319	1283.338405098112	102.073786425439	387.008594591039	1392.607450029331	74.041170030250	392.202624889888	1008.759666878243	717.914760867791	603.486292640132	902.478654351387	656.673550449963	647.310507443705	969.811696824547	591.552797716191	572.875877458442	947.658166342011	496.455171253372	594.291182229689	891.107518545120	412.355824480961	550.165656514046	807.650855147834	352.831661023233	625.197588408275	854.929056492856	277.691415244460	542.430510760473	704.258060465471	56.833171936709	494.134587725563	780.474667273805	25.852375119782	568.620822573825	887.433262441949	87.770818194360	548.810126925919	990.373773307599	43.728963925737	550.311132564201	
126	13.910714285714	1042.360321570087	953.996833631004	599.344545539710	1048.624246841400	946.523156017553	358.297201092444	1134.439221932326	1414.175429038341	480.991696040952	1047.044337763457	1477.123447156732	651.783867990782	1012.314490316183	1541.266461639564	472.267151556767	1061.472734249146	1488.571854365078	288.045761711776	939.486399613742	1186.638476914411	159.479192204274	1019.916988828591	908.449507887502	150.625597665770	993.057012440276	1158.898306596193	806.792533433962	1208.307535875307	980.015976183272	730.301462682560	1107.688357894611	750.259856064784	344.717066093017	1061.354634345392	663.067555998211	302.577021787399	1146.957598404544	632.169751307361	373.137485557431	1187.240575799643	524.669340339046	381.641495026555	1167.778752477996	414.851158286265	401.613974683878	1122.033404171720	331.508461404836	323.192720192969	1171.014243939155	287.698647290474	408.846719248212	1098.450652795617	46.918727157980	403.987619828689	1190.064983808377	28.986904476669	346.237629982774	1279.220370388142	98.102565562620	392.360874663741	1387.837163093727	66.717326515612	399.637270638834	1010.591760816382	718.308183216648	603.262697414796	903.713996755240	657.375724445759	645.899818376106	971.522256273615	591.551234112996	572.449428027621	948.321423510338	496.239083317271	594.035456954977	890.545564078636	412.005083005983	549.805570548098	805.247868022214	354.337547546805	624.338407950052	851.542796670078	277.977405355735	542.311061965859	697.005086221212	58.974774032740	494.339995805931	772.962593467800	26.746978824651	568.606197540576	880.394939253872	87.980568083366	549.313563759286	982.750959792725	43.562340105215	550.429111051392	
127	13.928000000000	1044.376187274687	955.078430253532	598.249192331088	1054.885469721679	947.365112620945	357.114177391531	1136.570671012448	1415.578424592825	479.203194305865	1045.676660762251	1478.734075486699	648.497092278947	1014.498650202062	1542.215451522433	468.026539900221	1066.452917546877	1488.751747504137	284.737336544728	948.079417003350	1185.937971872705	155.078505086344	1028.713234163002	907.714335661532	147.930880814362	987.860037970018	1160.457120981838	802.306206595803	1203.934793049858	980.729371865864	730.394931829260	1114.650069936421	750.938220935917	347.976684858869	1068.945426931351	664.022284623071	304.288159933181	1151.616796474850	631.923220899099	377.587052529020	1189.268393922842	523.287217973651	387.372873261246	1167.434780487143	413.201578287683	405.154961567159	1124.278732826673	331.249840535325	323.793469399823	1167.995120242673	285.959870475601	411.255378964377	1090.491833419336	47.907944504645	403.698495874632	1182.667836498118	28.304234078417	347.188968190919	1273.044715212430	94.680700348135	395.834752689705	1381.020051447260	59.937307722089	404.625013245463	1012.611308411683	719.168731406399	602.761842292488	905.264451445401	658.483972034889	644.470868604972	973.744464607540	592.022340259217	572.110556335999	949.680617165567	496.416231106192	593.983698455867	890.550072278138	411.892694107954	549.612713237549	803.359863153318	356.219675296296	623.554484755270	848.643608405084	278.600585748066	542.308434104384	690.034661043209	62.007920476023	494.565591133157	765.539783703866	28.142333361890	568.602035247349	873.685990669106	88.233878992549	549.948608682739	975.178807189579	43.346127718257	550.564424104988	
